<svg width="16" height="26" viewBox="0 0 16 26" fill="none" xmlns="http://www.w3.org/2000/svg">
<path d="M12.4769 4.34854L6.20402 0.555089C5.61195 0.192919 4.93884 0.00149857 4.25319 0.000305176C2.20945 0.000305176 0.334752 1.71225 0.334752 4.10502V18.3073L12.4769 10.9669C14.9083 9.49466 14.9083 5.81996 12.4769 4.34854ZM3.84837 11.448V3.86793L10.1163 7.65667L3.84837 11.448Z" fill="#0E1422"/>
<path d="M15.8489 25.9844C15.8489 26.0273 3.99081 25.966 3.99081 25.966L2.94336 25.8425C1.24672 25.644 -0.0557464 24.1233 0.00196809 22.3346C0.00196809 22.2917 0.00565199 22.2519 0.00810792 22.2103C0.0547076 21.4365 0.326076 20.6961 0.78582 20.0885C0.972526 19.8461 1.20091 19.6425 1.45916 19.4882L10.4782 14.0725C12.3414 12.9535 13.8931 12.562 14.6999 10.5341C14.9974 9.77568 15.126 8.95617 15.0757 8.1379L15.0446 7.58655L15.9651 12.9204C16.083 13.8264 15.9013 14.7537 15.4211 15.5169C15.1326 15.9785 14.7475 16.3653 14.2951 16.6479L3.82954 21.8943C3.81908 21.9006 3.80897 21.9074 3.79925 21.9149C3.51273 22.1293 3.68955 22.6069 4.04034 22.5867L12.7515 22.6403C14.4433 22.5417 15.8526 24.2112 15.8489 25.9844Z" fill="#0E1422"/>
</svg>
