<svg width="20" height="17" viewBox="0 0 20 17" fill="none" xmlns="http://www.w3.org/2000/svg">
<path d="M13.0853 12.344V2.89276C13.0853 2.52338 12.9347 2.16912 12.6667 1.90793C12.3987 1.64674 12.0352 1.5 11.6562 1.5H2.42903C2.05002 1.5 1.68655 1.64674 1.41855 1.90793C1.15056 2.16912 1 2.52338 1 2.89276V12.1212C1 12.4906 1.15056 12.8448 1.41855 13.106C1.68655 13.3672 2.05002 13.5139 2.42903 13.5139H3.50079M19 8.09192H13.0867M17.0765 13.2535H17.5695C17.9485 13.2535 18.312 13.1067 18.58 12.8456C18.848 12.5844 18.9986 12.2301 18.9986 11.8607V7.68245L17.0079 3.70891C16.8903 3.47493 16.7077 3.27781 16.4808 3.13993C16.254 3.00206 15.992 2.92897 15.7247 2.92897H13.3425M12.2536 13.5139H8.05653M3.57225 13.5557C3.57225 14.0714 3.78242 14.5659 4.15654 14.9305C4.53066 15.2952 5.03808 15.5 5.56716 15.5C6.09625 15.5 6.60366 15.2952 6.97778 14.9305C7.3519 14.5659 7.56208 14.0714 7.56208 13.5557C7.56208 13.0401 7.3519 12.5455 6.97778 12.1809C6.60366 11.8163 6.09625 11.6114 5.56716 11.6114C5.03808 11.6114 4.53066 11.8163 4.15654 12.1809C3.78242 12.5455 3.57225 13.0401 3.57225 13.5557ZM12.628 13.5557C12.628 14.0714 12.8382 14.5659 13.2123 14.9305C13.5864 15.2952 14.0938 15.5 14.6229 15.5C15.152 15.5 15.6594 15.2952 16.0335 14.9305C16.4076 14.5659 16.6178 14.0714 16.6178 13.5557C16.6178 13.0401 16.4076 12.5455 16.0335 12.1809C15.6594 11.8163 15.152 11.6114 14.6229 11.6114C14.0938 11.6114 13.5864 11.8163 13.2123 12.1809C12.8382 12.5455 12.628 13.0401 12.628 13.5557Z" stroke="#5C5F6A" stroke-width="1.43" stroke-linecap="round" stroke-linejoin="round"/>
</svg>
