<svg width="18" height="17" viewBox="0 0 18 17" fill="none" xmlns="http://www.w3.org/2000/svg">
<path d="M11.8572 12.5V14.7857C11.8572 15.0888 11.7368 15.3795 11.5225 15.5938C11.3082 15.8081 11.0175 15.9286 10.7144 15.9286H2.71439C2.41128 15.9286 2.1206 15.8081 1.90627 15.5938C1.69194 15.3795 1.57153 15.0888 1.57153 14.7857V2.21429C1.57153 1.91118 1.69194 1.62049 1.90627 1.40616C2.1206 1.19184 2.41128 1.07143 2.71439 1.07143H10.7144C11.0175 1.07143 11.3082 1.19184 11.5225 1.40616C11.7368 1.62049 11.8572 1.91118 11.8572 2.21429V4.5M8.42868 8.5H16.4287M16.4287 8.5L14.143 6.21429M16.4287 8.5L14.143 10.7857" stroke="#5C5F6A" stroke-width="1.43" stroke-linecap="round" stroke-linejoin="round"/>
</svg>
